<?xml version="1.0" encoding="utf-8"?>
<!-- Generator: Adobe Illustrator 16.0.4, SVG Export Plug-In . SVG Version: 6.00 Build 0)  -->
<!DOCTYPE svg PUBLIC "-//W3C//DTD SVG 1.1//EN" "http://www.w3.org/Graphics/SVG/1.1/DTD/svg11.dtd">
<svg version="1.1" id="Layer_1" xmlns="http://www.w3.org/2000/svg" xmlns:xlink="http://www.w3.org/1999/xlink" x="0px" y="0px"
	 width="64px" height="64px" viewBox="0 0 64 64" enable-background="new 0 0 64 64" xml:space="preserve">
<g>
	
		<polygon fill="#FFFFFF" stroke="#FFFFFF" stroke-width="1.2694" stroke-linecap="round" stroke-linejoin="round" stroke-miterlimit="10" points="
		19.976,38.919 34.291,48.775 34.291,15.225 19.976,25.082 	"/>
	<path fill="#FFFFFF" d="M16.567,39.461h-5.681c-0.879,0-1.592-0.714-1.592-1.59V26.129c0-0.878,0.713-1.59,1.592-1.59h5.681V39.461
		z"/>
	<path fill="#FFFFFF" d="M43.008,39.143c-0.306,0.308-0.8,0.308-1.104,0l-1.717-1.715c-0.305-0.305-0.305-0.8,0-1.104l11.467-11.467
		c0.307-0.306,0.8-0.306,1.104,0l1.718,1.718c0.306,0.305,0.305,0.799,0,1.104L43.008,39.143z"/>
	<path fill="#FFFFFF" d="M40.187,27.678c-0.305-0.306-0.305-0.801,0-1.104l1.717-1.718c0.306-0.306,0.8-0.306,1.104,0l11.468,11.466
		c0.305,0.306,0.305,0.801,0,1.104l-1.719,1.716c-0.305,0.307-0.798,0.307-1.104,0L40.187,27.678z"/>
</g>
</svg>
