<?xml version="1.0" encoding="utf-8"?>
<!-- Generator: Adobe Illustrator 16.0.4, SVG Export Plug-In . SVG Version: 6.00 Build 0)  -->
<!DOCTYPE svg PUBLIC "-//W3C//DTD SVG 1.1//EN" "http://www.w3.org/Graphics/SVG/1.1/DTD/svg11.dtd">
<svg version="1.1" id="Layer_1" xmlns="http://www.w3.org/2000/svg" xmlns:xlink="http://www.w3.org/1999/xlink" x="0px" y="0px"
	 width="64px" height="64px" viewBox="0 0 64 64" enable-background="new 0 0 64 64" xml:space="preserve">
<g>
	<circle fill="none" cx="32.326" cy="15.705" r="0.644"/>
	
		<polygon fill="#FFFFFF" stroke="#FFFFFF" stroke-width="1.2694" stroke-linecap="round" stroke-linejoin="round" stroke-miterlimit="10" points="
		18.125,39.08 32.44,48.939 32.44,15.388 18.125,25.246 	"/>
	<path fill="#FFFFFF" d="M14.715,39.625h-5.68c-0.878,0-1.59-0.713-1.59-1.592V26.294c0-0.88,0.712-1.592,1.59-1.592h5.681
		L14.715,39.625L14.715,39.625z"/>
	
		<path fill="none" stroke="#FFFFFF" stroke-width="3.863" stroke-linecap="round" stroke-linejoin="round" stroke-miterlimit="10" d="
		M49.691,48.734c4.24-4.24,6.863-10.101,6.863-16.571c0-6.472-2.623-12.329-6.863-16.57"/>
	<path fill="none" stroke="#FFFFFF" stroke-width="0.2272" stroke-miterlimit="10" d="M44.229,21.057
		c2.845,2.842,4.603,6.77,4.603,11.106c0,4.339-1.758,8.263-4.603,11.108"/>
	
		<path fill="none" stroke="#FFFFFF" stroke-width="3.863" stroke-linecap="round" stroke-linejoin="round" stroke-miterlimit="10" d="
		M44.229,43.271c2.845-2.847,4.603-6.771,4.603-11.108s-1.758-8.266-4.603-11.106"/>
	<path fill="none" stroke="#FFFFFF" stroke-width="0.2272" stroke-miterlimit="10" d="M38.979,26.306
		c1.5,1.499,2.428,3.571,2.428,5.858c0,2.289-0.928,4.359-2.428,5.857"/>
	
		<path fill="none" stroke="#FFFFFF" stroke-width="3.863" stroke-linecap="round" stroke-linejoin="round" stroke-miterlimit="10" d="
		M38.979,38.021c1.5-1.498,2.428-3.568,2.428-5.857c0-2.287-0.928-4.359-2.428-5.858"/>
</g>
</svg>
