<?xml version="1.0" encoding="utf-8"?>
<svg width="77" height="64" viewBox="0 0 77 64" xmlns="http://www.w3.org/2000/svg">
<g>
<path d="M76.772 9.366l-6.102-6.102-1.987 1.987 3.69 3.69h-22.563c-1.419-5.109-5.96-8.94-11.494-8.94s-10.217 3.832-11.494 8.94h-21.996l3.69-3.69-1.987-1.987-6.102 6.102c-0.568 0.568-0.568 1.419 0 1.987l6.102 6.102 1.987-1.987-3.69-3.69h21.428c0 0 0 0.142 0 0.142 0 1.845 0.426 3.69 1.277 5.392l2.554-1.277c-0.71-1.277-0.993-2.696-0.993-4.115 0.142-4.967 4.115-9.082 9.224-9.082 4.967 0 9.082 4.115 9.082 9.082 0 1.561-0.426 3.122-1.277 4.541l2.412 1.419c0.993-1.845 1.561-3.832 1.561-5.96 0 0 0-0.142 0-0.142h22.137l-3.69 3.69 1.987 1.987 6.244-6.102c0.426-0.568 0.426-1.419 0-1.987z" fill="#ffffff"></path>
<path d="M60.594 25.543h-0.142c-0.851 0-1.703 0.284-2.412 0.851-0.851-1.703-2.696-2.98-4.541-2.838h-0.142c-0.993 0-1.845 0.284-2.696 0.851-0.851-1.703-2.554-2.838-4.541-2.838h-0.142c-0.71 0-1.561 0.284-2.129 0.568l-0.142-8.656c0-2.554-2.412-4.683-5.109-4.683h-0.142c-1.277 0-2.554 0.568-3.548 1.561s-1.419 2.271-1.419 3.548l0.426 22.989c-3.122-3.122-6.67-5.392-9.082-3.548-2.696 2.129-2.129 4.825-1.135 6.244 1.703 2.98 4.967 8.089 7.379 11.778 0.993 1.703 1.987 3.122 2.412 3.831 3.264 5.392 8.798 8.514 14.9 8.514 0.142 0 0.284 0 0.426 0 4.683-0.142 9.082-2.129 12.346-5.676s4.967-8.089 4.825-13.055l-0.284-14.9c-0.284-2.27-2.554-4.541-5.109-4.541zM58.749 56.479c-2.696 2.98-6.386 4.683-10.359 4.683-5.251 0.142-10.075-2.554-12.772-7.095-0.426-0.851-1.419-2.129-2.412-3.831-2.412-3.69-5.534-8.94-7.237-11.778 0 0 0-0.142-0.142-0.142-0.142-0.142-0.851-1.277 0.568-2.412 0.568-0.426 3.406 0.851 7.663 5.96 0.426 0.426 0.993 0.568 1.561 0.426 0.568-0.284 0.993-0.71 0.851-1.419l-0.568-26.82c0-0.568 0.142-1.135 0.568-1.561s0.993-0.71 1.561-0.71h0.142c1.277 0 2.27 0.993 2.27 1.845l0.284 13.055c0 0 0 0 0 0s0 0 0 0l0.142 6.811c0 0.851 0.71 1.419 1.419 1.419 0.851 0 1.419-0.71 1.419-1.419l-0.142-6.811c0-0.568 0.142-1.135 0.568-1.561s0.993-0.71 1.561-0.71h0.142c1.135 0 2.27 0.993 2.27 2.129l0.142 6.812c0 0.71 0.71 1.419 1.419 1.419 0 0 0 0 0 0 0.851 0 1.419-0.71 1.419-1.419v-4.399c0 0 0 0 0 0 0-0.568 0.284-1.277 0.71-1.703s0.993-0.71 1.561-0.71h0.142c1.135-0.142 2.27 1.135 2.27 2.412v1.845c0 0 0 0 0 0v0 2.696c0 0.71 0.71 1.419 1.419 1.419 0 0 0 0 0 0 0.851 0 1.419-0.71 1.419-1.419v-2.696c0-1.135 0.851-2.129 1.845-2.129h0.142c0 0 0 0 0 0 0.993 0 1.845 0.993 1.845 2.129l0.426 14.616c0.142 4.115-1.419 8.089-4.115 11.069z" fill="#ffffff"></path>
</g>
</svg>
