<?xml version="1.0" encoding="utf-8"?>
<svg width="288" height="64" viewBox="0 0 288 64" xmlns="http://www.w3.org/2000/svg">
	<g>
		<path d="M57.841 17.406l-8.435 30.795h-0.134l-7.766-30.795h-12.184l-7.498 30.929h-0.268l-8.301-30.929h-13.255l14.46 45.523h12.988l7.766-30.527h0.134l8.034 30.527h12.987l14.326-45.523zM98.678 27.983c-1.473-1.607-3.749-2.41-6.828-2.41-2.008 0-3.615 0.402-4.954 1.071s-2.41 1.473-3.213 2.544c-0.803 0.937-1.339 2.008-1.74 3.213-0.268 1.071-0.535 2.142-0.535 2.946h20.352c-0.535-3.213-1.607-5.623-3.079-7.364zM84.485 51.95c1.874 1.874 4.552 2.678 8.167 2.678 2.544 0 4.686-0.669 6.561-1.874s2.946-2.544 3.347-4.017h10.979c-1.74 5.489-4.418 9.372-8.167 11.782-3.615 2.41-8.034 3.481-13.255 3.481-3.615 0-6.828-0.535-9.64-1.741s-5.356-2.812-7.364-4.954c-2.008-2.142-3.481-4.686-4.686-7.632-1.071-2.946-1.607-6.159-1.607-9.64 0-3.347 0.535-6.561 1.74-9.506 1.071-2.946 2.678-5.489 4.82-7.632 2.008-2.142 4.552-3.883 7.364-5.088s6.025-1.874 9.506-1.874c3.883 0 7.23 0.803 10.176 2.276s5.222 3.481 7.096 6.025 3.213 5.356 4.017 8.569c0.803 3.213 1.071 6.561 0.937 10.176h-33.071c0.268 4.285 1.205 7.23 3.079 8.971zM150.494 34.678c-0.402-1.741-1.071-3.347-1.875-4.686-0.937-1.339-2.008-2.41-3.347-3.213s-2.946-1.205-4.82-1.205c-1.875 0-3.347 0.402-4.82 1.205-1.339 0.803-2.41 1.875-3.347 3.213s-1.473 2.946-1.875 4.686c-0.402 1.741-0.669 3.615-0.669 5.489s0.268 3.749 0.669 5.489c0.402 1.741 1.071 3.347 1.875 4.686s2.008 2.41 3.347 3.213c1.339 0.803 2.946 1.205 4.82 1.205s3.481-0.402 4.82-1.205c1.339-0.803 2.41-1.874 3.347-3.213s1.473-2.946 1.875-4.686c0.402-1.741 0.669-3.615 0.669-5.489s-0.268-3.749-0.669-5.489zM130.276 0v22.895h0.134c1.473-2.41 3.615-4.017 6.159-5.222 2.678-1.071 5.356-1.607 8.167-1.607 2.276 0 4.552 0.536 6.828 1.473s4.285 2.41 6.025 4.285c1.741 1.875 3.213 4.418 4.418 7.498 1.071 3.079 1.741 6.561 1.741 10.845s-0.536 7.766-1.741 10.845c-1.071 3.080-2.544 5.489-4.418 7.498-1.741 2.008-3.749 3.347-6.025 4.285s-4.552 1.473-6.828 1.473c-3.347 0-6.293-0.535-8.971-1.607s-4.686-2.812-6.025-5.356h-0.134v5.623h-11.916v-62.929h12.586zM209.674 62.929h-12.452v-45.523h12.452v45.523zM197.222 0h12.452v10.31h-12.452v-10.31zM163.079 25.707v-8.301h7.498v-3.481c0-4.017 1.205-7.364 3.749-9.908s6.293-3.883 11.515-3.883c1.071 0 2.276 0 3.347 0.134s2.142 0.134 3.213 0.268v9.372c-1.473-0.134-2.946-0.268-4.552-0.268-1.741 0-2.946 0.402-3.615 1.205s-1.071 2.142-1.071 4.017v2.678h8.569v8.435h-8.569v36.954h-12.452v-37.222h-7.632zM226.008 17.406v8.435h0.134c0.536-1.473 1.339-2.678 2.41-3.883 0.937-1.205 2.142-2.276 3.481-3.079s2.678-1.473 4.151-2.008c1.473-0.535 2.946-0.669 4.552-0.669 0.803 0 1.741 0.134 2.678 0.402v11.649c-0.536-0.134-1.339-0.268-2.142-0.268-0.803-0.134-1.607-0.134-2.41-0.134-2.276 0-4.285 0.402-5.757 1.205-1.607 0.803-2.812 1.741-3.883 3.080-0.937 1.339-1.607 2.812-2.008 4.686s-0.669 3.615-0.669 5.757v20.352h-12.452v-45.523h11.916zM272.469 27.983c-1.473-1.607-3.749-2.41-6.829-2.41-2.008 0-3.615 0.402-4.954 1.071s-2.41 1.473-3.213 2.544c-0.803 0.937-1.339 2.008-1.741 3.213-0.268 1.071-0.536 2.142-0.536 2.946h20.352c-0.536-3.213-1.607-5.623-3.079-7.364zM258.276 51.95c1.875 1.874 4.552 2.678 8.167 2.678 2.544 0 4.686-0.669 6.561-1.874s2.946-2.544 3.347-4.017h10.979c-1.741 5.489-4.418 9.372-8.167 11.782-3.615 2.41-8.034 3.481-13.255 3.481-3.615 0-6.829-0.535-9.64-1.741s-5.356-2.812-7.364-4.954c-2.008-2.142-3.481-4.686-4.686-7.632-1.071-2.946-1.607-6.159-1.607-9.64 0-3.347 0.536-6.561 1.741-9.506 1.071-2.946 2.678-5.489 4.82-7.632 2.008-2.142 4.552-3.883 7.364-5.088s6.025-1.874 9.506-1.874c3.883 0 7.23 0.803 10.176 2.276 2.812 1.473 5.222 3.481 7.096 6.025s3.213 5.356 4.017 8.569c0.803 3.213 1.071 6.561 0.937 10.176h-32.937c0 4.285 1.071 7.23 2.946 8.971z" fill="#ffffff"></path>
	</g>
</svg>