<?xml version="1.0" encoding="utf-8"?>
<!-- Generator: Adobe Illustrator 16.0.4, SVG Export Plug-In . SVG Version: 6.00 Build 0)  -->
<!DOCTYPE svg PUBLIC "-//W3C//DTD SVG 1.1//EN" "http://www.w3.org/Graphics/SVG/1.1/DTD/svg11.dtd">
<svg version="1.1" id="Layer_1" xmlns="http://www.w3.org/2000/svg" xmlns:xlink="http://www.w3.org/1999/xlink" x="0px" y="0px"
	 width="288px" height="64px" viewBox="0 0 288 64" enable-background="new 0 0 288 64" xml:space="preserve">
<g>
	<path fill="#FFFFFF" d="M28.987,47.214c0.726,1.396,1.689,2.529,2.892,3.395c1.201,0.867,2.611,1.509,4.233,1.928
		c1.62,0.42,3.296,0.629,5.029,0.629c1.174,0,2.431-0.098,3.772-0.293c1.341-0.195,2.599-0.572,3.772-1.133
		c1.174-0.557,2.151-1.326,2.934-2.305c0.782-0.977,1.173-2.221,1.173-3.73c0-1.619-0.517-2.934-1.551-3.939
		c-1.035-1.006-2.389-1.844-4.065-2.514c-1.676-0.671-3.577-1.258-5.7-1.761c-2.125-0.503-4.275-1.062-6.455-1.677
		c-2.235-0.558-4.415-1.242-6.538-2.053c-2.124-0.811-4.023-1.857-5.7-3.145c-1.677-1.284-3.032-2.891-4.065-4.819
		c-1.035-1.928-1.551-4.261-1.551-6.999c0-3.072,0.656-5.742,1.97-8.005c1.312-2.263,3.031-4.149,5.155-5.658
		c2.123-1.509,4.526-2.626,7.208-3.353c2.683-0.727,5.365-1.09,8.047-1.09c3.129,0,6.132,0.35,9.011,1.047
		c2.877,0.7,5.434,1.832,7.669,3.396c2.234,1.565,4.009,3.562,5.323,5.993c1.312,2.432,1.97,5.379,1.97,8.844H50.781
		c-0.113-1.788-0.49-3.27-1.131-4.443c-0.644-1.174-1.496-2.096-2.557-2.766c-1.062-0.671-2.278-1.145-3.646-1.426
		c-1.37-0.278-2.864-0.418-4.484-0.418c-1.062,0-2.125,0.112-3.186,0.335c-1.062,0.224-2.026,0.615-2.892,1.173
		c-0.867,0.56-1.58,1.258-2.138,2.096c-0.559,0.838-0.838,1.9-0.838,3.186c0,1.174,0.223,2.125,0.67,2.85
		c0.447,0.728,1.327,1.398,2.641,2.012c1.312,0.616,3.129,1.23,5.448,1.845c2.318,0.615,5.35,1.397,9.095,2.347
		c1.117,0.225,2.668,0.629,4.652,1.216c1.983,0.587,3.953,1.522,5.909,2.808c1.956,1.286,3.646,3.005,5.071,5.155
		c1.425,2.151,2.138,4.903,2.138,8.257c0,2.738-0.532,5.28-1.593,7.627c-1.062,2.348-2.641,4.373-4.736,6.078
		c-2.096,1.705-4.694,3.031-7.795,3.98c-3.102,0.95-6.693,1.426-10.771,1.426c-3.298,0-6.496-0.406-9.598-1.215
		c-3.102-0.811-5.84-2.082-8.214-3.814c-2.376-1.731-4.262-3.939-5.658-6.622c-1.397-2.683-2.068-5.868-2.012-9.556h12.741
		C27.898,44.112,28.261,45.817,28.987,47.214z M117.251,61.966l-10.143-40.737h-0.167l-9.975,40.737H83.638L67.796,2.117h13.16
		l9.472,40.737h0.168L100.99,2.117h12.322l10.226,41.241h0.168l9.807-41.241h12.909l-16.095,59.849H117.251z M180.285,2.117
		l22.381,59.849h-13.663l-4.526-13.327h-22.381l-4.693,13.327h-13.244L166.79,2.117H180.285z M181.04,38.831l-7.544-21.961h-0.168
		l-7.795,21.961H181.04z M243.32,61.505c-2.851,1.201-5.729,1.803-8.635,1.803c-4.582,0-8.704-0.797-12.363-2.389
		c-3.66-1.594-6.748-3.785-9.262-6.58c-2.516-2.794-4.443-6.078-5.785-9.85c-1.34-3.771-2.012-7.838-2.012-12.196
		c0-4.47,0.672-8.619,2.012-12.447c1.342-3.827,3.27-7.167,5.785-10.017c2.514-2.85,5.602-5.084,9.262-6.706
		c3.659-1.62,7.781-2.431,12.363-2.431c3.073,0,6.049,0.461,8.928,1.383c2.877,0.922,5.476,2.277,7.795,4.065
		c2.318,1.789,4.233,3.996,5.742,6.622c1.509,2.627,2.431,5.645,2.766,9.053h-12.572c-0.783-3.354-2.293-5.867-4.527-7.544
		c-2.235-1.677-4.945-2.515-8.131-2.515c-2.962,0-5.477,0.574-7.543,1.719c-2.068,1.146-3.745,2.682-5.029,4.609
		c-1.287,1.928-2.223,4.122-2.809,6.58c-0.587,2.46-0.881,5.002-0.881,7.628c0,2.515,0.294,4.96,0.881,7.335
		c0.586,2.375,1.521,4.514,2.809,6.412c1.284,1.9,2.961,3.424,5.029,4.568c2.066,1.146,4.581,1.719,7.543,1.719
		c4.359,0,7.725-1.104,10.102-3.312c2.374-2.206,3.758-5.406,4.148-9.598h-13.244V29.61h25.146v32.355h-8.381l-1.342-6.789
		C248.768,58.194,246.17,60.304,243.32,61.505z"/>
</g>
</svg>
